<svg xmlns="http://www.w3.org/2000/svg" width="512" height="512" fill="none" viewBox="100 100 824 824"><g clip-path="url(#a)" transform="translate(100 100)scale(.80469)"><path fill="url(#b)" d="M0 0h1024v1024H0z"/><path fill="url(#c)" d="M0 0h1024v1024H0z"/><g filter="url(#d)"><path fill="#fff" d="M188.896-36.481C261.869-38.653 454.748-7.02 341.437 123.74S104.975 198.954-3.409 385.914C-111.812 572.856 73.935 562.677 131.293 614.47c57.358 51.776-15.886 91.173-104.637 156.615-88.753 65.424-107.177 149.706-77.398 290.685L1180.02 1080s-62.68-155.332 2.72-301.478c65.44-146.131 57.48-334.277-97.25-376.188-154.744-41.911-433.925-45.234-339.717-161.988 94.208-116.771 140.881-365.719-127.118-420.418-268.017-54.699-426.899 21.653-426.899 21.653s-75.832 124.11-2.86 121.938" filter="url(#e)"/><path fill="url(#f)" d="M284.323-125.955c-56.299 3.373-96.388 10.843-115.827 14.728-13.99 34.857-21.943 75.97 20.417 74.71C261.886-38.689 454.73-7.018 341.42 123.741 228.127 254.5 69.59 179.711-40.235 368.746-159.28 573.597 73.97 562.711 131.329 614.487c57.358 51.793-15.941 91.103-104.693 156.545-88.769 65.443-107.21 149.761-77.43 290.738l214.969-10.83C132.814 867.518 310.592 884.238 441.57 833.858c133.059-51.185 178.591-140.694 56.954-215.432-114.632-70.438-268.796-48.222-305.078-157.573-38.981-117.457 100.583-135.437 248.115-245.044C589.111 106.22 584.723-13.875 489.583-88.2c-47.569-37.162-132.388-42.117-205.26-37.755" filter="url(#e)"/><path fill="url(#g)" d="M400.917-199.263c-105.881 3.77-168.089 24.858-192.431 34.494 140.793-27.175 366.927-3.284 440.967 141.47 60.561 118.423-75.274 192.728-167.19 296.807-91.898 104.079-64.731 204.207 110.531 205.319 175.281 1.13 302.638 1.954 306.971 147.492 3.906 131.248-296.087 285.28-241.95 453.681h522.245s-62.68-155.351 2.72-301.48c65.43-146.148 57.48-334.259-97.29-376.169-154.726-41.911-433.891-45.288-339.701-162.041 94.208-116.771 140.864-365.701-127.135-420.4-83.765-17.096-156.805-21.34-217.737-19.173" filter="url(#e)"/></g><path stroke="#a1c9ff" stroke-opacity=".1" d="M284.353-125.456c36.417-2.18 75.803-2.03 112.016 3.302 36.221 5.333 69.22 15.844 92.906 34.348 47.468 37.082 72.241 85.532 66.809 138.335-5.435 52.822-41.109 110.131-114.821 164.879-36.859 27.383-73.224 49.047-106.44 67.978-33.204 18.925-63.292 35.134-87.543 51.588-24.251 16.453-42.739 33.197-52.705 53.23-9.978 20.058-11.381 43.345-1.604 72.807 18.227 54.934 66.076 76.777 123.491 93.7 57.477 16.941 124.56 28.968 181.8 64.141 30.366 18.657 50.25 38.209 60.951 57.807 10.694 19.584 12.23 39.234 5.871 58.156-12.736 37.896-57.197 72.997-123.693 98.577-32.708 12.581-68.344 20.974-102.948 29.36-34.588 8.381-68.153 16.755-96.649 29.298-28.502 12.546-51.983 29.284-66.359 54.425-14.317 25.036-19.56 58.335-11.851 103.965l-206.42 10.43-7.504.38c-14.806-70.264-17.595-126.361-5.668-173.031 11.944-46.742 38.662-84.077 82.96-116.732 11.091-8.178 21.94-15.949 32.325-23.391 10.383-7.441 20.305-14.552 29.534-21.408 18.454-13.707 34.172-26.41 45.325-38.7q.522-.575 1.031-1.15c10.538-11.874 16.793-23.44 16.982-35.236.196-12.19-6.088-24.485-20.485-37.486v-.001a59 59 0 0 0-1.868-1.611c-14.451-12.179-36.031-20.914-58.811-29.773-23.805-9.258-48.951-18.662-68.921-32.271-19.951-13.596-34.683-31.354-37.727-57.309-3.048-25.988 5.608-60.289 32.687-106.986 54.122-93.36 111.907-126.155 170.345-151.956 58.461-25.811 117.702-44.658 174.447-110.141 28.367-32.736 37.667-59.375 34.346-80.908-1.421-9.214-5.15-17.46-10.646-24.823-7.348-9.854-17.86-18.125-30.251-25.011-21.652-12.033-49.118-19.888-75.716-24.6-26.602-4.712-52.371-6.287-70.651-5.742-10.514.313-17.822-2.006-22.69-6.122-4.865-4.114-7.367-10.087-8.138-17.243-1.536-14.276 3.846-33.055 10.791-50.409 18.91-3.774 56.99-10.848 110.264-14.338zm614.912 751.79c.971 32.629-16.951 66.746-43.666 101.416-26.706 34.659-62.121 69.774-96.003 104.407-33.865 34.615-66.206 68.756-86.689 101.421-20.256 32.302-28.996 63.29-15.985 91.922l-492.332 24.89c-7.713-45.54-2.467-78.622 11.713-103.419 14.23-24.885 37.5-41.507 65.894-54.005 28.401-12.502 61.879-20.857 96.482-29.242 34.586-8.381 70.29-16.79 103.071-29.399 66.562-25.605 111.396-60.852 124.281-99.191 6.452-19.196 4.882-39.135-5.94-58.954-10.813-19.804-30.853-39.469-61.306-58.18-57.391-35.266-124.707-47.35-182.04-64.248-57.395-16.917-104.77-38.641-122.825-93.057-9.713-29.267-8.287-52.273 1.55-72.046 9.849-19.798 28.164-36.424 52.372-52.848 24.209-16.424 54.238-32.602 87.477-51.546 33.227-18.938 69.633-40.624 106.54-68.044 73.838-54.842 109.745-112.376 115.219-165.58C562.554-2.59 537.563-51.35 489.892-88.593c-23.883-18.658-57.079-29.207-93.377-34.551-36.306-5.345-75.766-5.492-112.222-3.31-55.728 3.339-95.583 10.69-115.263 14.611 4.01-9.921 8.505-19.298 12.462-26.988a378 378 0 0 1 7.582-14.012 284 284 0 0 1 2.895-4.962l.135-.227.326-.15q.46-.215 1.378-.623a192 192 0 0 1 5.486-2.325 298 298 0 0 1 9.17-3.545l.117.396c70.331-13.575 161.99-14.395 245.3 6.256C537.199-137.37 612.08-95.266 649.007-23.071c15.092 29.51 17.936 56.24 12.309 81.362-5.63 25.139-19.751 48.711-38.666 71.877-18.916 23.165-42.597 45.89-67.315 69.346-24.709 23.448-50.45 47.623-73.447 73.663-45.986 52.082-62.339 103.349-45.001 141.809 17.34 38.464 68.227 63.785 155.904 64.342 87.673.565 163.236 1.059 217.432 19.566 27.079 9.247 48.786 22.98 63.998 43.438s23.963 47.69 25.044 84.002ZM307.643 156.749c-46.186 39.541-93.578 55.75-140.678 76.546C108.403 259.151 50.42 292.064-3.841 385.663c-27.123 46.774-35.9 81.304-32.816 107.604 3.088 26.332 18.052 44.318 38.157 58.019 20.086 13.688 45.356 23.134 69.123 32.377 10.104 3.929 19.93 7.822 28.984 11.984-10.878-4.542-23.095-8.764-35.863-13.067-28.091-9.467-58.85-19.345-84.097-33.992-25.237-14.642-44.891-34.006-50.873-62.408-5.986-28.42 1.689-66.017 31.423-117.183C15.02 274.632 81.975 246.125 149.442 224.866c54.41-17.145 109.244-29.587 158.201-68.117Zm592.622 469.555c-1.086-36.457-9.878-63.904-25.243-84.568-15.364-20.665-37.264-34.497-64.475-43.789-54.386-18.572-130.143-19.055-217.75-19.62-87.585-.556-137.913-25.854-154.998-63.752-16.953-37.606-1.321-87.946 43.768-139.518l1.071-1.218c22.961-25.999 48.668-50.142 73.386-73.599 24.711-23.449 48.437-46.217 67.4-69.44s33.19-46.937 38.868-72.29c5.682-25.368 2.796-52.335-12.394-82.036-37.112-72.56-112.318-114.779-195.776-135.467-81.375-20.171-170.677-19.893-240.398-7.263a358 358 0 0 1 15.366-5.372c18.617-5.757 44.016-12.337 75.691-17.636 21.61-3.616 46.141-6.635 73.434-8.391 7.337-.455 14.909-.83 22.72-1.108 32.393-1.152 68.212-.491 107.248 2.952q1.231.108 2.466.221l1.236.113c33.294 3.082 68.897 8.186 106.67 15.895 66.924 13.659 114.158 39.435 145.913 72.203 31.753 32.767 48.06 72.557 53.077 114.299 6.087 50.65-4.452 104.164-24.183 151.445-12.798 30.66-29.459 58.698-47.962 81.632-5.173 6.412-9.233 12.494-12.253 18.27-3.885 7.419-6.055 14.333-6.67 20.794-1.095 11.504 2.748 21.508 10.497 30.288 7.737 8.767 19.369 16.316 33.878 22.963 14.514 6.648 31.939 12.407 51.294 17.577 25.434 6.793 54.225 12.572 84.16 18.017 15.627 2.844 31.566 5.601 47.502 8.356 46.462 8.036 92.902 16.101 131.552 26.572 27.31 7.394 50.03 19.35 68.58 34.832.38.323.77.648 1.15.974.58.492 1.15.988 1.72 1.487 32.1 28.11 51.14 67.137 59.38 111.31 13.12 70.418-1.22 153.884-33.9 226.88-32.74 73.163-33.44 128.526-25.92 165.624 3.75 18.545 9.56 32.518 14.44 41.859 2.43 4.67 4.64 8.183 6.23 10.531.8 1.174 1.45 2.057 1.89 2.648.04.042.07.083.1.123l-521.033 26.338c-13.037-28.263-4.524-58.989 15.757-91.331 20.417-32.559 52.68-66.625 86.557-101.252 33.86-34.611 69.328-69.778 96.08-104.496 26.743-34.707 44.856-69.062 43.874-102.057Z"/><path stroke="url(#h)" stroke-width="10" d="M1024 512v102.3c-.1 17.1-.1 34.1-.2 51.2-.2 17-.4 34.1-.8 51.1-.5 17.1-1 34.1-2.2 51.1s-2.5 34.1-4.9 51c-2.5 16.8-5.3 33.8-10 50.1s-10.2 32.9-18.2 47.7c-8.1 14.8-18.1 29.4-30 41.2-11.8 11.9-26.4 21.9-41.2 30-14.8 8-31.4 13.5-47.7 18.2s-33.3 7.5-50.1 10c-16.9 2.4-34 3.7-51 4.9s-34 1.7-51.1 2.2c-17 .4-34.1.6-51.1.8-17.1.1-34.1.1-51.2.2H409.7c-17.1-.1-34.1-.1-51.2-.2-17-.2-34.1-.4-51.1-.8-17.1-.5-34.1-1-51.1-2.2s-34.1-2.5-51-4.9c-16.8-2.5-33.8-5.3-50.1-10s-32.9-10.2-47.7-18.2c-14.8-8.1-29.4-18.1-41.2-30-11.9-11.8-21.9-26.4-30-41.2-8-14.8-13.5-31.4-18.2-47.7s-7.5-33.3-10-50.1c-2.4-16.9-3.7-34-4.9-51s-1.7-34-2.2-51.1c-.4-17-.6-34.1-.8-51.1-.1-17.1-.1-34.1-.2-51.2V409.7c.1-17.1.1-34.1.2-51.2.2-17 .4-34.1.8-51.1.5-17.1 1-34.1 2.2-51.1s2.5-34.1 4.9-51c2.5-16.8 5.3-33.8 10-50.1s10.2-32.9 18.2-47.7c8.1-14.8 18.1-29.4 30-41.2 11.8-11.9 26.4-21.9 41.2-30 14.8-8 31.4-13.5 47.7-18.2s33.3-7.5 50.1-10c16.9-2.4 34-3.7 51-4.9s34-1.7 51.1-2.2c17-.4 34.1-.6 51.1-.8 17.1-.1 34.1-.1 51.2-.2h204.6c17.1.1 34.1.1 51.2.2 17 .2 34.1.4 51.1.8 17.1.5 34.1 1 51.1 2.2s34.1 2.5 51 4.9c16.8 2.5 33.8 5.3 50.1 10s32.9 10.2 47.7 18.2c14.8 8.1 29.4 18.1 41.2 30 11.9 11.8 21.9 26.4 30 41.2 8 14.8 13.5 31.4 18.2 47.7s7.5 33.3 10 50.1c2.4 16.9 3.7 34 4.9 51s1.7 34 2.2 51.1c.4 17 .6 34.1.8 51.1.1 17.1.1 34.1.2 51.2V512Z"/></g><defs><linearGradient id="b" x1="512" x2="512" y1="0" y2="1024" gradientUnits="userSpaceOnUse"><stop stop-color="#3d8bff"/><stop offset=".55" stop-color="#1f5ceb"/><stop offset="1" stop-color="#1642c8"/></linearGradient><linearGradient id="f" x1="555.284" x2="586.617" y1="-9.822" y2="1042.8" gradientUnits="userSpaceOnUse"><stop stop-color="#e6eeff"/><stop offset="1" stop-color="#b4ccff"/></linearGradient><linearGradient id="g" x1="555.284" x2="586.617" y1="-9.822" y2="1042.8" gradientUnits="userSpaceOnUse"><stop stop-color="#d2e2ff"/><stop offset="1" stop-color="#93b8ff"/></linearGradient><linearGradient id="h" x1="512" x2="512" y1="0" y2="1024" gradientUnits="userSpaceOnUse"><stop stop-color="#fff" stop-opacity=".5"/><stop offset=".45" stop-color="#fff" stop-opacity="0"/><stop offset=".7" stop-color="#0b2e9e" stop-opacity=".06"/><stop offset="1" stop-color="#0b2e9e" stop-opacity=".16"/></linearGradient><filter id="d" width="1305.17" height="1281.58" x="-73.613" y="-199.808" color-interpolation-filters="sRGB" filterUnits="userSpaceOnUse"><feFlood flood-opacity="0" result="BackgroundImageFix"/><feBlend in="SourceGraphic" in2="BackgroundImageFix" result="shape"/><feColorMatrix in="SourceAlpha" result="hardAlpha" values="0 0 0 0 0 0 0 0 0 0 0 0 0 0 0 0 0 0 127 0"/><feOffset dx="10" dy="30"/><feGaussianBlur stdDeviation="10"/><feComposite in2="hardAlpha" k2="-1" k3="1" operator="arithmetic"/><feColorMatrix values="0 0 0 0 0.33087 0 0 0 0 0.516892 0 0 0 0 0.993574 0 0 0 0.15 0"/><feBlend in2="shape" result="effect1_innerShadow_1340_2"/></filter><filter id="e" width="115%" height="115%" x="-5%" y="-5%" color-interpolation-filters="sRGB"><feDropShadow dx="0" dy="12" flood-color="#0b2e9e" flood-opacity=".16" stdDeviation="18"/></filter><radialGradient id="c" cx="0" cy="0" r="1" gradientTransform="matrix(0 880 -780 0 512 96)" gradientUnits="userSpaceOnUse"><stop stop-color="#fff" stop-opacity=".22"/><stop offset=".55" stop-color="#fff" stop-opacity=".04"/><stop offset="1" stop-color="#fff" stop-opacity="0"/></radialGradient><clipPath id="a"><path fill="#fff" d="M1024 512v102.3c-.1 17.1-.1 34.1-.2 51.2-.2 17-.4 34.1-.8 51.1-.5 17.1-1 34.1-2.2 51.1s-2.5 34.1-4.9 51c-2.5 16.8-5.3 33.8-10 50.1s-10.2 32.9-18.2 47.7c-8.1 14.8-18.1 29.4-30 41.2-11.8 11.9-26.4 21.9-41.2 30-14.8 8-31.4 13.5-47.7 18.2s-33.3 7.5-50.1 10c-16.9 2.4-34 3.7-51 4.9s-34 1.7-51.1 2.2c-17 .4-34.1.6-51.1.8-17.1.1-34.1.1-51.2.2H409.7c-17.1-.1-34.1-.1-51.2-.2-17-.2-34.1-.4-51.1-.8-17.1-.5-34.1-1-51.1-2.2s-34.1-2.5-51-4.9c-16.8-2.5-33.8-5.3-50.1-10s-32.9-10.2-47.7-18.2c-14.8-8.1-29.4-18.1-41.2-30-11.9-11.8-21.9-26.4-30-41.2-8-14.8-13.5-31.4-18.2-47.7s-7.5-33.3-10-50.1c-2.4-16.9-3.7-34-4.9-51s-1.7-34-2.2-51.1c-.4-17-.6-34.1-.8-51.1-.1-17.1-.1-34.1-.2-51.2V409.7c.1-17.1.1-34.1.2-51.2.2-17 .4-34.1.8-51.1.5-17.1 1-34.1 2.2-51.1s2.5-34.1 4.9-51c2.5-16.8 5.3-33.8 10-50.1s10.2-32.9 18.2-47.7c8.1-14.8 18.1-29.4 30-41.2 11.8-11.9 26.4-21.9 41.2-30 14.8-8 31.4-13.5 47.7-18.2s33.3-7.5 50.1-10c16.9-2.4 34-3.7 51-4.9s34-1.7 51.1-2.2c17-.4 34.1-.6 51.1-.8 17.1-.1 34.1-.1 51.2-.2h204.6c17.1.1 34.1.1 51.2.2 17 .2 34.1.4 51.1.8 17.1.5 34.1 1 51.1 2.2s34.1 2.5 51 4.9c16.8 2.5 33.8 5.3 50.1 10s32.9 10.2 47.7 18.2c14.8 8.1 29.4 18.1 41.2 30 11.9 11.8 21.9 26.4 30 41.2 8 14.8 13.5 31.4 18.2 47.7s7.5 33.3 10 50.1c2.4 16.9 3.7 34 4.9 51s1.7 34 2.2 51.1c.4 17 .6 34.1.8 51.1.1 17.1.1 34.1.2 51.2V512"/></clipPath></defs></svg>